<svg width="251" height="148" viewBox="0 0 251 148" fill="none" xmlns="http://www.w3.org/2000/svg">
<path d="M154.31 96.9918C155.07 98.2722 155.564 98.6009 156.599 98.2992L161.145 95.9815C161.145 95.9815 161.927 95.6477 161.977 95.1495C162.024 94.6741 162.07 94.3377 162.036 93.9015L151.22 71.4078C150.157 70.745 149.722 70.6614 148.992 71.1403L144.98 73.1906C143.897 73.8496 143.797 74.3712 144.208 75.4786L154.31 96.9918Z" fill="#3AAFAA"/>
<path d="M151.963 98.4478L142.454 77.7963C141.277 77.9462 137.046 77.7369 135.65 76.9346C134.253 76.1323 126.804 73.4644 121.119 77.7666H110.422L108.847 81.1838H115.86C115.017 82.3138 114.646 83.0372 114.196 84.5118C113.94 85.6429 113.896 86.5533 113.869 88.3152C113.669 89.7809 113.401 90.5744 112.651 91.9403C112.495 92.9553 112.559 93.4523 113.156 94.1095C114.363 94.9182 115.04 95.1684 116.246 95.3575C118.449 94.8204 119.445 94.1963 121.06 92.8615C122.354 91.179 122.829 90.1476 123.11 88.1072C123.741 87.0208 124.221 86.4946 125.576 85.8786C126.735 85.4977 127.49 85.5745 128.964 86.0569L148.456 103.796C149.414 104.771 149.613 105.456 149.021 107.065C148.316 108.451 147.602 108.671 145.901 108.313L132.143 98.2101C131.394 97.958 131.016 97.9772 130.45 98.4181C130.153 99.114 130.207 99.4355 130.45 99.9632L143.791 110.096C144.317 111.045 144.462 111.614 143.791 112.859C142.979 113.897 142.344 113.929 140.968 113.246L129.202 104.599C128.384 104.537 128.042 104.63 127.716 105.104C127.5 105.721 127.553 106.051 127.864 106.619L138.056 114.256C138.808 115.343 138.937 115.97 138.383 117.138C137.684 118.053 137.149 118.266 135.828 117.881L126.319 110.868C125.604 110.752 125.228 110.746 124.744 111.166C124.488 111.497 124.435 111.769 124.596 112.503L131.103 117.732L131.101 117.75C131.018 118.443 130.971 118.838 130.39 119.337C129.623 119.758 129.125 119.764 128.132 119.426L122.575 115.207C122.368 113.867 122.119 113.143 120.822 112.027C119.747 111.572 119.172 111.51 118.207 111.819L117.227 110.987C117.264 109.714 117.074 109.026 116.187 107.867C115.248 107.048 114.578 106.761 112.829 106.916L112.205 106.263C112.336 104.145 112.137 103.408 111.522 102.519C110.789 101.477 109.942 101.183 107.421 101.33L102.726 95.1792L101.389 98.2101L105.341 103.618L102.459 107.808C101.749 109.694 101.838 110.639 103.41 111.998C105.77 113.304 106.874 113.194 108.491 111.641C107.745 113.958 107.905 115.008 109.263 116.425C111.196 117.861 112.305 117.647 114.315 115.979C113.405 118.032 113.235 119.12 115.028 120.674C116.803 121.948 117.926 121.833 120.258 119.515C119.704 121.765 120.036 122.688 121.714 123.764C123.526 124.681 124.593 123.84 126.527 121.506C127.902 122.386 128.77 122.462 130.39 122.279C132.088 121.519 132.704 120.884 133.421 119.515C135.879 120.928 136.986 120.943 138.71 120.258C140.579 119.046 141.077 118.15 141.266 116.276C143.083 116.493 144.011 116.238 145.515 115.088C146.583 113.685 146.848 112.825 146.733 111.166C150.53 110.633 152.406 108.433 151.784 104.42C151.639 103.484 150.86 103.264 150.507 102.014L151.963 98.4478Z" fill="#3AAFAA"/>
<path d="M108.164 73.3392L103.439 70.8729C102.492 70.6165 102.073 70.7088 101.538 71.3186L91.1376 93.4558C90.6723 94.4002 90.6944 94.8885 91.2267 95.6843L95.6838 98.2101C96.8759 98.7713 97.4719 98.6583 98.3879 97.5861L108.491 75.4786C108.776 74.4794 108.646 74.0341 108.164 73.3392Z" fill="#3AAFAA"/>
<path d="M85.816 63.37C84.88 63.37 83.98 63.22 83.116 62.92C82.264 62.608 81.604 62.212 81.136 61.732L81.658 60.706C82.102 61.138 82.696 61.504 83.44 61.804C84.196 62.092 84.988 62.236 85.816 62.236C86.608 62.236 87.25 62.14 87.742 61.948C88.246 61.744 88.612 61.474 88.84 61.138C89.08 60.802 89.2 60.43 89.2 60.022C89.2 59.53 89.056 59.134 88.768 58.834C88.492 58.534 88.126 58.3 87.67 58.132C87.214 57.952 86.71 57.796 86.158 57.664C85.606 57.532 85.054 57.394 84.502 57.25C83.95 57.094 83.44 56.89 82.972 56.638C82.516 56.386 82.144 56.056 81.856 55.648C81.58 55.228 81.442 54.682 81.442 54.01C81.442 53.386 81.604 52.816 81.928 52.3C82.264 51.772 82.774 51.352 83.458 51.04C84.142 50.716 85.018 50.554 86.086 50.554C86.794 50.554 87.496 50.656 88.192 50.86C88.888 51.052 89.488 51.322 89.992 51.67L89.542 52.732C89.002 52.372 88.426 52.108 87.814 51.94C87.214 51.772 86.632 51.688 86.068 51.688C85.312 51.688 84.688 51.79 84.196 51.994C83.704 52.198 83.338 52.474 83.098 52.822C82.87 53.158 82.756 53.542 82.756 53.974C82.756 54.466 82.894 54.862 83.17 55.162C83.458 55.462 83.83 55.696 84.286 55.864C84.754 56.032 85.264 56.182 85.816 56.314C86.368 56.446 86.914 56.59 87.454 56.746C88.006 56.902 88.51 57.106 88.966 57.358C89.434 57.598 89.806 57.922 90.082 58.33C90.37 58.738 90.514 59.272 90.514 59.932C90.514 60.544 90.346 61.114 90.01 61.642C89.674 62.158 89.158 62.578 88.462 62.902C87.778 63.214 86.896 63.37 85.816 63.37ZM94.6042 56.296H101.264V57.43H94.6042V56.296ZM94.7482 62.11H102.326V63.262H93.4162V50.662H102.056V51.814H94.7482V62.11ZM105.457 63.262V50.662H110.173C111.241 50.662 112.159 50.836 112.927 51.184C113.695 51.52 114.283 52.012 114.691 52.66C115.111 53.296 115.321 54.07 115.321 54.982C115.321 55.87 115.111 56.638 114.691 57.286C114.283 57.922 113.695 58.414 112.927 58.762C112.159 59.098 111.241 59.266 110.173 59.266H106.195L106.789 58.654V63.262H105.457ZM114.061 63.262L110.821 58.69H112.261L115.519 63.262H114.061ZM106.789 58.762L106.195 58.132H110.137C111.397 58.132 112.351 57.856 112.999 57.304C113.659 56.752 113.989 55.978 113.989 54.982C113.989 53.974 113.659 53.194 112.999 52.642C112.351 52.09 111.397 51.814 110.137 51.814H106.195L106.789 51.184V58.762ZM122.047 63.262L116.467 50.662H117.907L123.127 62.524H122.335L127.591 50.662H128.941L123.361 63.262H122.047ZM130.77 63.262V50.662H132.102V63.262H130.77ZM141.673 63.37C140.725 63.37 139.849 63.214 139.045 62.902C138.241 62.578 137.545 62.128 136.957 61.552C136.369 60.976 135.907 60.298 135.571 59.518C135.247 58.738 135.085 57.886 135.085 56.962C135.085 56.038 135.247 55.186 135.571 54.406C135.907 53.626 136.369 52.948 136.957 52.372C137.557 51.796 138.259 51.352 139.063 51.04C139.867 50.716 140.743 50.554 141.691 50.554C142.603 50.554 143.461 50.71 144.265 51.022C145.069 51.322 145.747 51.778 146.299 52.39L145.453 53.236C144.937 52.708 144.367 52.33 143.743 52.102C143.119 51.862 142.447 51.742 141.727 51.742C140.971 51.742 140.269 51.874 139.621 52.138C138.973 52.39 138.409 52.756 137.929 53.236C137.449 53.704 137.071 54.256 136.795 54.892C136.531 55.516 136.399 56.206 136.399 56.962C136.399 57.718 136.531 58.414 136.795 59.05C137.071 59.674 137.449 60.226 137.929 60.706C138.409 61.174 138.973 61.54 139.621 61.804C140.269 62.056 140.971 62.182 141.727 62.182C142.447 62.182 143.119 62.062 143.743 61.822C144.367 61.582 144.937 61.198 145.453 60.67L146.299 61.516C145.747 62.128 145.069 62.59 144.265 62.902C143.461 63.214 142.597 63.37 141.673 63.37ZM150.327 56.296H156.987V57.43H150.327V56.296ZM150.471 62.11H158.049V63.262H149.139V50.662H157.779V51.814H150.471V62.11ZM164.654 63.37C163.718 63.37 162.818 63.22 161.954 62.92C161.102 62.608 160.442 62.212 159.974 61.732L160.496 60.706C160.94 61.138 161.534 61.504 162.278 61.804C163.034 62.092 163.826 62.236 164.654 62.236C165.446 62.236 166.088 62.14 166.58 61.948C167.084 61.744 167.45 61.474 167.678 61.138C167.918 60.802 168.038 60.43 168.038 60.022C168.038 59.53 167.894 59.134 167.606 58.834C167.33 58.534 166.964 58.3 166.508 58.132C166.052 57.952 165.548 57.796 164.996 57.664C164.444 57.532 163.892 57.394 163.34 57.25C162.788 57.094 162.278 56.89 161.81 56.638C161.354 56.386 160.982 56.056 160.694 55.648C160.418 55.228 160.28 54.682 160.28 54.01C160.28 53.386 160.442 52.816 160.766 52.3C161.102 51.772 161.612 51.352 162.296 51.04C162.98 50.716 163.856 50.554 164.924 50.554C165.632 50.554 166.334 50.656 167.03 50.86C167.726 51.052 168.326 51.322 168.83 51.67L168.38 52.732C167.84 52.372 167.264 52.108 166.652 51.94C166.052 51.772 165.47 51.688 164.906 51.688C164.15 51.688 163.526 51.79 163.034 51.994C162.542 52.198 162.176 52.474 161.936 52.822C161.708 53.158 161.594 53.542 161.594 53.974C161.594 54.466 161.732 54.862 162.008 55.162C162.296 55.462 162.668 55.696 163.124 55.864C163.592 56.032 164.102 56.182 164.654 56.314C165.206 56.446 165.752 56.59 166.292 56.746C166.844 56.902 167.348 57.106 167.804 57.358C168.272 57.598 168.644 57.922 168.92 58.33C169.208 58.738 169.352 59.272 169.352 59.932C169.352 60.544 169.184 61.114 168.848 61.642C168.512 62.158 167.996 62.578 167.3 62.902C166.616 63.214 165.734 63.37 164.654 63.37Z" fill="black"/>
<path d="M137.455 131.56C130.586 138.607 119.259 138.607 112.39 131.56L51.6255 69.2148C40.819 58.1272 48.675 39.5 64.1577 39.5H185.687C201.17 39.5001 209.026 58.1273 198.219 69.2148L137.455 131.56Z" stroke="black" stroke-width="5"/>
</svg>
