<svg width="222" height="132" viewBox="0 0 222 132" fill="none" xmlns="http://www.w3.org/2000/svg">
<path d="M136.759 85.9598C137.432 87.0945 137.87 87.3858 138.787 87.1185L142.816 85.0644C142.816 85.0644 143.509 84.7685 143.553 84.327C143.595 83.9057 143.636 83.6076 143.606 83.221L134.02 63.2857C133.077 62.6984 132.692 62.6242 132.045 63.0487L128.49 64.8658C127.53 65.4498 127.441 65.9121 127.805 66.8936L136.759 85.9598Z" fill="#3AAFAA"/>
<path d="M134.678 87.2501L126.251 68.9475C125.208 69.0804 121.458 68.8949 120.22 68.1838C118.983 67.4728 112.381 65.1083 107.343 68.9212H97.8624L96.4667 71.9497H102.682C101.935 72.9512 101.606 73.5923 101.207 74.8992C100.98 75.9016 100.942 76.7085 100.917 78.27C100.74 79.569 100.503 80.2723 99.8375 81.4828C99.6993 82.3823 99.7564 82.8227 100.285 83.4052C101.355 84.1219 101.955 84.3437 103.024 84.5113C104.976 84.0353 105.859 83.4822 107.29 82.2992C108.438 80.808 108.859 79.894 109.107 78.0856C109.666 77.1228 110.092 76.6564 111.293 76.1106C112.32 75.7729 112.989 75.841 114.295 76.2685L131.571 91.9903C132.42 92.8539 132.596 93.4609 132.071 94.8871C131.446 96.1158 130.814 96.3104 129.306 95.9931L117.113 87.0394C116.449 86.816 116.114 86.833 115.612 87.2237C115.349 87.8405 115.397 88.1255 115.612 88.5931L127.436 97.5732C127.902 98.4144 128.03 98.919 127.436 100.022C126.716 100.942 126.153 100.971 124.934 100.365L114.506 92.7013C113.781 92.6469 113.478 92.729 113.189 93.149C112.998 93.6957 113.045 93.9883 113.321 94.4921L122.354 101.26C123.019 102.223 123.134 102.779 122.643 103.815C122.024 104.625 121.549 104.814 120.378 104.473L111.951 98.2579C111.317 98.1551 110.984 98.1493 110.556 98.5213C110.329 98.8146 110.281 99.0562 110.424 99.7063L116.191 104.341L116.189 104.357C116.116 104.971 116.074 105.321 115.559 105.763C114.879 106.137 114.438 106.142 113.558 105.842L108.633 102.103C108.45 100.915 108.229 100.273 107.08 99.285C106.126 98.8816 105.617 98.8265 104.762 99.1006L103.893 98.3632C103.926 97.2349 103.758 96.6254 102.971 95.5981C102.139 94.8722 101.546 94.6175 99.9955 94.7554L99.4425 94.176C99.5588 92.2994 99.3819 91.6457 98.8368 90.8579C98.1879 89.9345 97.4372 89.6738 95.2027 89.8045L91.0418 84.3533L89.8567 87.0394L93.3592 91.8323L90.8048 95.5454C90.1755 97.2171 90.2546 98.0545 91.6475 99.2586C93.7392 100.417 94.7176 100.319 96.1507 98.9426C95.4895 100.996 95.6315 101.927 96.8354 103.182C98.548 104.455 99.5308 104.265 101.312 102.787C100.506 104.607 100.356 105.571 101.944 106.948C103.517 108.077 104.513 107.976 106.579 105.921C106.088 107.915 106.383 108.733 107.87 109.687C109.476 110.5 110.422 109.754 112.136 107.686C113.354 108.466 114.123 108.533 115.559 108.37C117.064 107.697 117.61 107.134 118.245 105.921C120.424 107.173 121.404 107.187 122.933 106.58C124.59 105.505 125.03 104.711 125.198 103.051C126.808 103.243 127.631 103.017 128.964 101.997C129.91 100.755 130.145 99.9924 130.043 98.5212C133.409 98.0494 135.071 96.0991 134.52 92.5433C134.392 91.7137 133.701 91.5188 133.388 90.4102L134.678 87.2501Z" fill="#3AAFAA"/>
<path d="M95.861 64.9974L91.6738 62.8116C90.8347 62.5843 90.4633 62.6662 89.9884 63.2066L80.7713 82.8258C80.359 83.6629 80.3786 84.0956 80.8503 84.8009L84.8005 87.0394C85.857 87.5368 86.3852 87.4366 87.197 86.4863L96.1507 66.8934C96.4035 66.0079 96.2882 65.6133 95.861 64.9974Z" fill="#3AAFAA"/>
<path d="M71.5702 58.108C70.6342 58.108 69.7342 57.958 68.8702 57.658C68.0182 57.346 67.3582 56.95 66.8902 56.47L67.4122 55.444C67.8562 55.876 68.4502 56.242 69.1942 56.542C69.9502 56.83 70.7422 56.974 71.5702 56.974C72.3622 56.974 73.0042 56.878 73.4962 56.686C74.0002 56.482 74.3662 56.212 74.5942 55.876C74.8342 55.54 74.9542 55.168 74.9542 54.76C74.9542 54.268 74.8102 53.872 74.5222 53.572C74.2462 53.272 73.8802 53.038 73.4242 52.87C72.9682 52.69 72.4642 52.534 71.9122 52.402C71.3602 52.27 70.8082 52.132 70.2562 51.988C69.7042 51.832 69.1942 51.628 68.7262 51.376C68.2702 51.124 67.8982 50.794 67.6102 50.386C67.3342 49.966 67.1962 49.42 67.1962 48.748C67.1962 48.124 67.3582 47.554 67.6822 47.038C68.0182 46.51 68.5282 46.09 69.2122 45.778C69.8962 45.454 70.7722 45.292 71.8402 45.292C72.5482 45.292 73.2502 45.394 73.9462 45.598C74.6422 45.79 75.2422 46.06 75.7462 46.408L75.2962 47.47C74.7562 47.11 74.1802 46.846 73.5682 46.678C72.9682 46.51 72.3862 46.426 71.8222 46.426C71.0662 46.426 70.4422 46.528 69.9502 46.732C69.4582 46.936 69.0922 47.212 68.8522 47.56C68.6242 47.896 68.5102 48.28 68.5102 48.712C68.5102 49.204 68.6482 49.6 68.9242 49.9C69.2122 50.2 69.5842 50.434 70.0402 50.602C70.5082 50.77 71.0182 50.92 71.5702 51.052C72.1222 51.184 72.6682 51.328 73.2082 51.484C73.7602 51.64 74.2642 51.844 74.7202 52.096C75.1882 52.336 75.5602 52.66 75.8362 53.068C76.1242 53.476 76.2682 54.01 76.2682 54.67C76.2682 55.282 76.1002 55.852 75.7642 56.38C75.4282 56.896 74.9122 57.316 74.2162 57.64C73.5322 57.952 72.6502 58.108 71.5702 58.108ZM80.3584 51.034H87.0184V52.168H80.3584V51.034ZM80.5024 56.848H88.0804V58H79.1704V45.4H87.8104V46.552H80.5024V56.848ZM91.2114 58V45.4H95.9274C96.9954 45.4 97.9134 45.574 98.6814 45.922C99.4494 46.258 100.037 46.75 100.445 47.398C100.865 48.034 101.075 48.808 101.075 49.72C101.075 50.608 100.865 51.376 100.445 52.024C100.037 52.66 99.4494 53.152 98.6814 53.5C97.9134 53.836 96.9954 54.004 95.9274 54.004H91.9494L92.5434 53.392V58H91.2114ZM99.8154 58L96.5754 53.428H98.0154L101.273 58H99.8154ZM92.5434 53.5L91.9494 52.87H95.8914C97.1514 52.87 98.1054 52.594 98.7534 52.042C99.4134 51.49 99.7434 50.716 99.7434 49.72C99.7434 48.712 99.4134 47.932 98.7534 47.38C98.1054 46.828 97.1514 46.552 95.8914 46.552H91.9494L92.5434 45.922V53.5ZM107.801 58L102.221 45.4H103.661L108.881 57.262H108.089L113.345 45.4H114.695L109.115 58H107.801ZM116.524 58V45.4H117.856V58H116.524ZM127.428 58.108C126.48 58.108 125.604 57.952 124.8 57.64C123.996 57.316 123.3 56.866 122.712 56.29C122.124 55.714 121.662 55.036 121.326 54.256C121.002 53.476 120.84 52.624 120.84 51.7C120.84 50.776 121.002 49.924 121.326 49.144C121.662 48.364 122.124 47.686 122.712 47.11C123.312 46.534 124.014 46.09 124.818 45.778C125.622 45.454 126.498 45.292 127.446 45.292C128.358 45.292 129.216 45.448 130.02 45.76C130.824 46.06 131.502 46.516 132.054 47.128L131.208 47.974C130.692 47.446 130.122 47.068 129.498 46.84C128.874 46.6 128.202 46.48 127.482 46.48C126.726 46.48 126.024 46.612 125.376 46.876C124.728 47.128 124.164 47.494 123.684 47.974C123.204 48.442 122.826 48.994 122.55 49.63C122.286 50.254 122.154 50.944 122.154 51.7C122.154 52.456 122.286 53.152 122.55 53.788C122.826 54.412 123.204 54.964 123.684 55.444C124.164 55.912 124.728 56.278 125.376 56.542C126.024 56.794 126.726 56.92 127.482 56.92C128.202 56.92 128.874 56.8 129.498 56.56C130.122 56.32 130.692 55.936 131.208 55.408L132.054 56.254C131.502 56.866 130.824 57.328 130.02 57.64C129.216 57.952 128.352 58.108 127.428 58.108ZM136.081 51.034H142.741V52.168H136.081V51.034ZM136.225 56.848H143.803V58H134.893V45.4H143.533V46.552H136.225V56.848ZM150.408 58.108C149.472 58.108 148.572 57.958 147.708 57.658C146.856 57.346 146.196 56.95 145.728 56.47L146.25 55.444C146.694 55.876 147.288 56.242 148.032 56.542C148.788 56.83 149.58 56.974 150.408 56.974C151.2 56.974 151.842 56.878 152.334 56.686C152.838 56.482 153.204 56.212 153.432 55.876C153.672 55.54 153.792 55.168 153.792 54.76C153.792 54.268 153.648 53.872 153.36 53.572C153.084 53.272 152.718 53.038 152.262 52.87C151.806 52.69 151.302 52.534 150.75 52.402C150.198 52.27 149.646 52.132 149.094 51.988C148.542 51.832 148.032 51.628 147.564 51.376C147.108 51.124 146.736 50.794 146.448 50.386C146.172 49.966 146.034 49.42 146.034 48.748C146.034 48.124 146.196 47.554 146.52 47.038C146.856 46.51 147.366 46.09 148.05 45.778C148.734 45.454 149.61 45.292 150.678 45.292C151.386 45.292 152.088 45.394 152.784 45.598C153.48 45.79 154.08 46.06 154.584 46.408L154.134 47.47C153.594 47.11 153.018 46.846 152.406 46.678C151.806 46.51 151.224 46.426 150.66 46.426C149.904 46.426 149.28 46.528 148.788 46.732C148.296 46.936 147.93 47.212 147.69 47.56C147.462 47.896 147.348 48.28 147.348 48.712C147.348 49.204 147.486 49.6 147.762 49.9C148.05 50.2 148.422 50.434 148.878 50.602C149.346 50.77 149.856 50.92 150.408 51.052C150.96 51.184 151.506 51.328 152.046 51.484C152.598 51.64 153.102 51.844 153.558 52.096C154.026 52.336 154.398 52.66 154.674 53.068C154.962 53.476 155.106 54.01 155.106 54.67C155.106 55.282 154.938 55.852 154.602 56.38C154.266 56.896 153.75 57.316 153.054 57.64C152.37 57.952 151.488 58.108 150.408 58.108Z" fill="white"/>
<path d="M123.246 114.726C116.377 121.773 105.05 121.773 98.1811 114.726L49.7212 65.0059C38.9151 53.9183 46.771 35.2913 62.2534 35.291H159.172C174.655 35.291 182.511 53.9182 171.705 65.0059L123.246 114.726Z" stroke="white" stroke-width="5"/>
</svg>
